<?xml version="1.0" encoding="UTF-8"?>
<svg id="Camada_2" data-name="Camada 2" xmlns="http://www.w3.org/2000/svg" viewBox="0 0 1853.1 314.58">
  <defs>
    <style>
      .cls-1 {
        fill: #143163;
      }

      .cls-2 {
        fill: #17cfda;
      }

      .cls-3 {
        fill: none;
      }
    </style>
  </defs>
  <g id="Camada_1-2" data-name="Camada 1">
    <g>
      <rect class="cls-3" width="1853.1" height="314.52"/>
      <g>
        <path class="cls-1" d="M95.43,127.87c5.79-3.08,13.91-4.63,24.41-4.63,18.3,0,35.75,3.28,52.35,9.85,9.73,3.84,20.81-.36,25.81-9.51l17.26-31.63c-10.93-6.18-23.94-11.06-39.05-14.68-15.11-3.62-30.04-5.42-44.82-5.42s-28.32,1.75-41.29,5.26c-12.96,3.51-24.59,8.61-34.86,15.33-10.27,6.7-18.42,15.49-24.41,26.35-6,10.86-9,23.2-9,37.05,0,9.8,1.76,18.41,5.29,25.85,3.53,7.44,8.57,13.47,15.11,18.03,6.54,4.59,13.17,8.25,19.93,11.02,6.74,2.77,14.41,5.1,22.99,7.04,22.71,4.9,37.76,8.79,45.16,11.65,7.4,2.88,11.09,6.77,11.09,11.65,0,13.62-11.99,20.44-35.99,20.44-22.35,0-43.32-4.5-62.85-13.51-10.5-4.86-22.96-.22-27.76,10.25L.02,290.55c28.48,15.96,59.23,23.94,92.22,23.94s59.93-8.21,81.45-24.6c21.54-16.39,32.28-37.68,32.28-63.87,0-10.23-2.15-19.22-6.43-26.98-4.28-7.78-10.38-14.05-18.33-18.84-7.92-4.79-15.7-8.45-23.3-11.02-7.6-2.56-16.45-4.9-26.51-7.01-16.92-3.62-28.6-6.86-35.02-9.73-6.43-2.88-9.64-6.77-9.64-11.65,0-5.53,2.9-9.85,8.66-12.93h.02Z"/>
        <path class="cls-1" d="M379.15,71.85c-40.93,0-75.68,13.2-104.27,39.59-28.6,26.39-42.89,59.08-42.89,98.02,0,30.87,10.18,56.09,30.52,75.67,20.36,19.58,47.13,29.38,80.34,29.38,40.93,0,75.61-13.2,104.12-39.59,28.48-26.39,42.74-59.08,42.74-98.02,0-30.87-10.11-56.09-30.36-75.67-20.25-19.58-46.97-29.38-80.18-29.38ZM404.38,238.21c-14.68,14.68-32.51,22.03-53.51,22.03-16.49,0-29.89-5.37-40.16-16.12-10.27-10.75-15.43-24.53-15.43-41.34,0-21.72,7.4-39.91,22.17-54.61,14.77-14.68,32.67-22.03,53.66-22.03,16.49,0,29.84,5.37,40,16.12,10.18,10.75,15.27,24.53,15.27,41.34,0,21.72-7.33,39.9-22.01,54.61Z"/>
        <path class="cls-1" d="M448.41,0h-44.55c-.79,0-1.54.36-2.01.99l-40.13,52.11c-1.29,1.66-.09,4.07,2.01,4.07h34.57c.7,0,1.36-.29,1.83-.79l50.14-52.11c1.54-1.6.41-4.27-1.83-4.27h-.02Z"/>
        <path class="cls-1" d="M655.19,179.76l-53.66-103.12h-61.69l-35.02,233.09h60.72l18.96-138.58,50.14,86.22h17.35l78.07-90.38-23.46,142.74h61.06l35.02-233.09h-64.28l-83.21,103.12Z"/>
        <path class="cls-1" d="M1274.38,218.72l-87.71-142.08h-61.39l-35.02,233.09h61.04l20.56-139.23,88.05,139.23h61.04l35.05-233.09h-60.42l-21.21,142.08Z"/>
        <path class="cls-1" d="M1366.6,309.73h186.06l7.72-50.13h-125.02l6.1-41.19h112.15l7.72-50.13h-112.15l6.11-41.5h125l7.4-50.13h-186.06l-35.02,233.09Z"/>
        <path class="cls-1" d="M1776.76,84.78l-61.85,80.3-36.43-76.55c-3.46-7.26-10.82-11.89-18.89-11.89h-57.46l72.93,147.21-13.16,85.9h61.38l13.16-85.9,116.65-147.21h-59.72c-6.52,0-12.65,3.01-16.61,8.14Z"/>
        <path class="cls-2" d="M962.67,182.37c-3.23-.13-6.45-.34-9.66-.56-7.22-.54-14.39-1.37-21.52-2.5-7.13-1.08-14.18-2.43-21.18-4.07-13.98-3.26-27.67-7.6-40.97-12.95-6.65-2.68-13.19-5.64-19.64-8.84-4-1.98-7.94-4.07-11.86-6.25,2.44-4.14,4.86-8.3,7.24-12.48,1.29-2.23,2.53-4.45,3.78-6.7-4.84-3.44-9.14-6.65-12.81-9.51-1.67,2.65-3.35,5.33-4.98,8.03-3.46,5.6-6.83,11.24-10.14,16.91-.93,1.6-1.86,3.17-2.78,4.77,2.35,1.42,4.71,2.81,7.08,4.16,6.56,3.71,13.23,7.13,20.02,10.25,6.79,3.12,13.71,5.94,20.7,8.43,14,5.01,28.35,8.79,42.89,11.31,7.28,1.24,14.59,2.18,21.92,2.83,7.33.59,14.7.88,22.06.88s14.66-.38,21.97-1.06c-4.1-.76-8.14-1.64-12.17-2.63l.02-.02Z"/>
        <path class="cls-2" d="M848.56,145.95c23.96,11.94,49.52,19.99,75.74,23.97-27.33-11.06-51.11-25.2-68.96-37.39-2.26,4.47-4.53,8.95-6.79,13.42Z"/>
        <path class="cls-2" d="M852.38,122.91c5.75,4.77,11.7,9.26,17.81,13.47,12.22,8.45,25.09,15.78,38.48,21.96,6.7,3.08,13.53,5.87,20.43,8.36,6.95,2.45,13.96,4.63,21.09,6.52,7.08,1.91,14.28,3.4,21.49,4.63-3.76-1.8-7.44-3.69-11.06-5.66-3.08-.97-6.13-1.98-9.19-3.04-6.83-2.38-13.55-5.04-20.11-7.94-6.61-2.88-13.05-6-19.39-9.37-12.65-6.74-24.75-14.46-36.22-23.04-5.72-4.29-11.27-8.86-16.67-13.6-3.35-2.95-6.63-5.98-9.82-9.11,3.44-3.37,6.88-6.77,10.25-10.21,1.81-1.82,3.6-3.66,5.38-5.51-3.78-4.56-7.08-8.79-9.91-12.5-2.31,2.14-4.62,4.29-6.9,6.47-4.8,4.52-9.53,9.1-14.21,13.74-1.31,1.3-2.62,2.59-3.91,3.89,1.9,1.98,3.82,3.91,5.77,5.82,5.36,5.26,10.93,10.3,16.67,15.06l.02.04Z"/>
        <path class="cls-2" d="M869.55,86.42c4.3,6.09,8.89,11.94,13.69,17.6,9.59,11.31,20.13,21.69,31.47,31.11,5.68,4.7,11.54,9.13,17.56,13.33,6.06,4.16,12.28,8.07,18.66,11.71,6.33,3.67,12.9,6.95,19.55,10.01-3.17-2.7-6.22-5.49-9.21-8.32-2.72-1.73-5.41-3.48-8.08-5.28-5.97-4.05-11.76-8.34-17.37-12.84-5.63-4.47-11.06-9.15-16.29-14.05-10.47-9.76-20.16-20.32-28.98-31.59-4.41-5.62-8.6-11.44-12.56-17.42-2.47-3.71-4.84-7.46-7.13-11.31,4.21-2.36,8.39-4.77,12.56-7.22,2.24-1.28,4.43-2.61,6.65-3.91-2.47-5.4-4.55-10.3-6.31-14.61-2.8,1.46-5.59,2.95-8.35,4.47-5.81,3.12-11.56,6.34-17.29,9.6-1.61.92-3.19,1.82-4.8,2.74,1.31,2.41,2.67,4.77,4.05,7.1,3.8,6.47,7.87,12.75,12.17,18.84v.02Z"/>
        <path class="cls-2" d="M934.32,131.99c-18.12-23.16-31.58-47.21-40.9-66.64-4.21,2.74-8.42,5.51-12.62,8.25,14.73,22.23,32.83,41.91,53.53,58.38Z"/>
        <path class="cls-2" d="M895.68,55.57c2.58,6.99,5.47,13.83,8.64,20.5,6.31,13.38,13.8,26.15,22.28,38.13,4.25,5.98,8.76,11.8,13.48,17.4,4.77,5.57,9.77,10.95,14.98,16.12,5.18,5.17,10.66,10.03,16.29,14.7-2.35-3.42-4.59-6.9-6.74-10.41-2.17-2.36-4.32-4.77-6.43-7.17-4.73-5.46-9.21-11.08-13.44-16.88-4.28-5.75-8.3-11.69-12.06-17.76-7.58-12.12-14.16-24.82-19.77-37.95-2.8-6.56-5.32-13.26-7.6-20.05-1.43-4.2-2.74-8.45-3.94-12.75,4.68-1.21,9.34-2.45,14.01-3.73,2.49-.67,4.95-1.37,7.44-2.07-.97-5.85-1.72-11.13-2.28-15.76-3.08.7-6.15,1.42-9.23,2.18-6.43,1.53-12.83,3.15-19.21,4.83-1.79.47-3.57.94-5.36,1.42.66,2.65,1.33,5.28,2.06,7.91,1.99,7.24,4.28,14.34,6.86,21.34h.02Z"/>
        <path class="cls-2" d="M992.85,3.84c-6.58-.38-13.19-.65-19.77-.97-6.61-.2-13.19-.52-19.8-.63-6.61-.18-13.21-.25-19.8-.27h-5.54c-.07,2.72-.09,5.46-.07,8.18.05,7.49.41,14.95,1.06,22.37.66,7.42,1.67,14.77,2.99,22.03,2.62,14.55,6.52,28.8,11.58,42.58,2.56,6.88,5.38,13.65,8.51,20.28,3.15,6.61,6.58,13.08,10.27,19.42,3.67,6.34,7.69,12.45,11.94,18.44,4.23,5.98,8.8,11.73,13.6,17.29-4.12-6.07-7.99-12.28-11.63-18.55-3.64-6.27-6.99-12.7-10.14-19.15-3.15-6.47-6-13.06-8.58-19.76-2.62-6.65-4.98-13.42-7.04-20.26-4.16-13.67-7.22-27.61-9.21-41.75-1-7.06-1.67-14.19-2.13-21.34-.27-4.43-.43-8.88-.48-13.33,4.84.05,9.66.05,14.5,0,6.61,0,13.19-.22,19.8-.34,6.61-.22,13.19-.36,19.8-.65,3.3-.13,6.61-.27,9.89-.4,1.52-.07,3.05-.16,4.57-.22.16,3.78.43,7.53.81,11.26.61,5.73,1.47,11.4,2.6,17,2.26,11.2,5.61,22.12,9.95,32.6,2.19,5.24,4.62,10.36,7.24,15.35,2.69,4.99,5.61,9.82,8.73,14.55.52.79,1.06,1.57,1.61,2.36,1.81,2.63,5.66,7.71,5.66,7.71l1.09,1.35s1.18,1.48,1.76,2.2c3.57,4.38,7.42,8.57,11.47,12.54-3.39-4.54-6.56-9.2-9.57-13.89-3.01-4.72-5.72-9.55-8.33-14.43-2.58-4.88-4.93-9.87-7.04-14.93-2.15-5.04-4.07-10.16-5.75-15.33-3.39-10.36-5.91-20.95-7.51-31.7-.81-5.37-1.38-10.79-1.72-16.23-.36-5.44-.45-10.9-.32-16.37.04-1.82.13-3.64.23-5.49-1.83-.11-3.69-.22-5.52-.34-1.43-.09-2.85-.18-4.28-.27-1.88-.11-3.76-.22-5.61-.36-3.3-.18-6.58-.36-9.89-.56h.02Z"/>
        <path class="cls-2" d="M1017.17,107.17c-6.54-9.6-17.85-14.97-27.67-11.24-9.77,3.71-13.96,16.93-8.44,30.1-.63-.97-1.24-1.98-1.76-3.06-7.28-14.23-2.85-29.43,7.87-33.07,10.77-3.69,22.94,3.12,28.82,14.57.45.9.84,1.8,1.2,2.7h-.02Z"/>
        <path class="cls-1" d="M1074.68,165.6h.02c.75-29.99-5.43-52.63-10.45-66.48-10.72-29.52-22.22-35.45-27.17-37.39-5.43-2.11-10.48-2.38-14.03-2.23.66,2.74,1.38,5.49,2.15,8.21,1.9,6.25,3.78,12.57,5.63,18.95,2.17,7.49,4.3,14.93,6.33,22.3,1.2,5.67,1.22,11.4-2.15,15.11-.27.31-.59.56-.91.81-1.04-.92-2.13-1.87-3.28-2.9-5.57-4.86-11.15-9.69-16.72-14.55-6.18-5.87-14.19-8.45-20.91-6.23-1.15.38-5.59,1.89-8.37,6.23-2.58,4.05-2.26,8.21-2.08,10.39.43,5.6,2.6,9.8,6.27,14.55,1.74,2.25,4.39,5.69,7.62,9.89,3.78,4.95,6.4,8.16,7.04,9.24,5.47,9.08,8.21,19.78,8.21,32.13,0,21.72-7.33,39.9-22.01,54.61-14.68,14.68-32.51,22.03-53.51,22.03-16.49,0-29.89-5.37-40.16-16.12-10.29-10.75-15.43-24.53-15.43-41.34,0-6.16.61-12.03,1.81-17.63-7.06-1.89-14-4.07-20.84-6.52-7.56-2.7-14.86-5.69-21.72-8.86-4.89-2.25-9.75-4.68-14.53-7.22-5.34,14.48-8.01,30.13-8.01,46.94,0,30.87,10.18,56.09,30.52,75.67,20.36,19.58,47.13,29.38,80.34,29.38,40.93,0,75.61-13.2,104.12-39.59,28.48-26.39,42.74-59.08,42.74-98.02,0-3.87-.18-7.62-.5-11.31l-.04-.07Z"/>
      </g>
    </g>
  </g>
</svg>