<svg preserveAspectRatio="none" overflow="visible" style="display: block;" width="38" height="38" viewBox="0 0 38 38" fill="none" xmlns="http://www.w3.org/2000/svg">
<g id="transfer-alt-square">
<path id="Vector" d="M19.0003 2.99996C15.8358 2.99996 12.7424 3.93835 10.1112 5.69645C7.48003 7.45455 5.42927 9.95341 4.21827 12.877C3.00727 15.8006 2.69041 19.0177 3.30778 22.1214C3.92514 25.2251 5.44899 28.076 7.68663 30.3137C9.92427 32.5513 12.7752 34.0752 15.8789 34.6925C18.9826 35.3099 22.1997 34.993 25.1233 33.782C28.0469 32.571 30.5457 30.5203 32.3038 27.8891C34.062 25.2579 35.0003 22.1645 35.0003 19C34.9955 14.758 33.3082 10.6912 30.3087 7.69163C27.3091 4.6921 23.2423 3.00483 19.0003 2.99996ZM24.6847 23.6312L18.2847 20.4312C18.0189 20.2982 17.7954 20.094 17.6392 19.8412C17.483 19.5884 17.4003 19.2971 17.4003 19V11C17.4003 10.5756 17.5689 10.1686 17.869 9.86859C18.169 9.56853 18.576 9.39996 19.0003 9.39996C19.4247 9.39996 19.8317 9.56853 20.1317 9.86859C20.4318 10.1686 20.6003 10.5756 20.6003 11V18.0108L26.116 20.7686C26.4956 20.9584 26.7843 21.2912 26.9185 21.6939C27.0527 22.0965 27.0214 22.536 26.8316 22.9156C26.6418 23.2952 26.309 23.5838 25.9063 23.718C25.5037 23.8522 25.0643 23.821 24.6847 23.6312Z" fill="#BF181D"/>
</g>
</svg>
