<svg width="166" height="166" viewBox="0 0 166 166" fill="none" xmlns="http://www.w3.org/2000/svg">
<g filter="url(#filter0_d_146_634)">
<rect x="42" y="28" width="81.32" height="81.32" rx="38" fill="white" shape-rendering="crispEdges"/>
<path d="M70.9317 60.66C70.9317 58.4508 72.7225 56.66 74.9317 56.66H77.5983C79.8075 56.66 81.5983 58.4508 81.5983 60.66V76.66C81.5983 78.8691 79.8075 80.66 77.5983 80.66H74.9317C72.7225 80.66 70.9317 78.8691 70.9317 76.66V60.66Z" fill="#111827"/>
<path d="M86.9317 60.66C86.9317 58.4508 88.7225 56.66 90.9317 56.66H93.5983C95.8075 56.66 97.5983 58.4508 97.5983 60.66V76.66C97.5983 78.8691 95.8075 80.66 93.5983 80.66H90.9317C88.7225 80.66 86.9317 78.8691 86.9317 76.66V60.66Z" fill="#111827"/>
</g>
<defs>
<filter id="filter0_d_146_634" x="0" y="0" width="165.32" height="165.32" filterUnits="userSpaceOnUse" color-interpolation-filters="sRGB">
<feFlood flood-opacity="0" result="BackgroundImageFix"/>
<feColorMatrix in="SourceAlpha" type="matrix" values="0 0 0 0 0 0 0 0 0 0 0 0 0 0 0 0 0 0 127 0" result="hardAlpha"/>
<feOffset dy="14"/>
<feGaussianBlur stdDeviation="21"/>
<feComposite in2="hardAlpha" operator="out"/>
<feColorMatrix type="matrix" values="0 0 0 0 0 0 0 0 0 0 0 0 0 0 0 0 0 0 0.28 0"/>
<feBlend mode="normal" in2="BackgroundImageFix" result="effect1_dropShadow_146_634"/>
<feBlend mode="normal" in="SourceGraphic" in2="effect1_dropShadow_146_634" result="shape"/>
</filter>
</defs>
</svg>
